<svg version="1.1" id="Layer_1" xmlns="http://www.w3.org/2000/svg" xmlns:xlink="http://www.w3.org/1999/xlink" x="0px" y="0px"
	 width="100%" viewBox="0 0 1024 1024" enable-background="new 0 0 1024 1024" xml:space="preserve">
<path fill="#000000" opacity="1.000000" stroke="none" 
	d="
M567.557129,225.287857 
	C590.463623,232.489197 610.696228,243.853729 629.315002,258.233032 
	C632.503479,260.695465 635.887939,262.797119 639.757385,264.002106 
	C645.138672,265.677887 649.248718,264.081879 651.882996,259.050873 
	C656.376892,250.468552 657.584473,241.000732 658.516174,231.579910 
	C658.967163,227.018890 660.860901,225.319321 665.158691,225.664734 
	C665.986450,225.731277 666.824524,225.666016 667.657837,225.667618 
	C674.651611,225.681015 675.255127,226.220673 675.229431,233.446320 
	C675.185669,245.777893 675.416382,258.127319 674.830139,270.435822 
	C674.092041,285.932953 674.407593,301.421600 674.307678,316.913116 
	C674.191589,334.912292 674.300781,352.912842 674.250916,370.912598 
	C674.232361,377.617340 673.181030,378.721924 667.052673,379.108368 
	C658.613098,379.640594 656.704041,378.293823 655.565002,371.859283 
	C652.492798,354.504150 650.025635,336.983521 644.586182,320.164764 
	C631.613525,280.053589 605.377441,252.757843 565.153564,239.406250 
	C540.926941,231.364670 516.054504,228.737701 490.755707,232.184479 
	C462.988251,235.967606 440.987732,250.291809 423.063995,271.224365 
	C401.663025,296.217865 389.649536,325.853394 381.406769,357.261292 
	C374.362030,384.104340 371.986542,411.534180 370.063995,439.142670 
	C368.340271,463.895447 370.060181,488.430664 372.543762,512.871704 
	C376.551392,552.310242 386.831177,590.080200 408.172974,624.064026 
	C425.610626,651.831055 449.220734,672.152344 481.119690,681.473267 
	C497.022675,686.120117 513.319397,687.643982 530.004883,685.680725 
	C547.830261,683.583313 565.026001,679.449341 581.665405,672.829773 
	C582.593262,672.460571 583.533447,672.112000 584.429871,671.675659 
	C589.449707,669.232361 589.631714,667.943604 585.376892,664.440002 
	C568.883179,650.858643 551.262146,638.860046 533.294983,627.343567 
	C511.550201,613.405762 489.880554,599.338257 469.375061,583.607727 
	C452.696747,570.813171 438.072205,555.919250 428.244659,537.168457 
	C415.477478,512.808655 413.957245,486.910492 420.140991,460.443665 
	C427.571686,428.639648 448.144867,408.066742 477.415649,395.767273 
	C508.999817,382.495667 541.847412,381.146515 574.904236,388.787659 
	C593.431641,393.070343 609.843018,402.527435 625.152527,413.765106 
	C627.295471,415.338165 629.411804,417.030792 631.768311,418.214661 
	C639.987915,422.344025 646.790527,419.858734 650.600769,411.495941 
	C653.458679,405.223206 655.078186,398.593933 655.631165,391.757446 
	C656.030762,386.817688 658.338074,384.730621 663.321777,384.766174 
	C678.800659,384.876587 676.613525,384.059753 676.278748,397.396057 
	C675.275513,437.360077 673.698547,477.312531 674.323303,517.300415 
	C674.400635,522.249023 672.214661,524.063904 667.470154,524.278320 
	C654.586121,524.860474 654.479858,524.926453 651.642029,512.214294 
	C646.470703,489.048767 639.590332,466.489441 627.749023,445.740692 
	C614.776550,423.009979 595.279602,408.843262 569.758301,403.683624 
	C541.933899,398.058380 514.972717,402.025604 489.574554,414.439026 
	C469.090363,424.450714 459.272827,441.372345 457.975647,464.392975 
	C456.733124,486.443207 464.523438,503.725037 480.008514,518.783630 
	C501.057770,539.253174 524.898560,555.959595 549.393372,571.807983 
	C576.371643,589.263123 601.332520,609.117249 623.592590,632.306396 
	C626.394348,635.225159 628.372253,635.286194 630.652832,631.833313 
	C639.022339,619.161621 644.550476,605.338867 647.652100,590.517212 
	C651.296204,573.103027 654.210571,555.576477 655.784302,537.838196 
	C656.069580,534.623108 657.915894,532.911560 661.369202,532.634949 
	C673.438293,531.668396 674.277100,532.363892 674.284363,544.405151 
	C674.301575,573.238281 674.053040,602.074951 674.441345,630.903137 
	C674.681335,648.722595 675.327637,666.539062 675.221558,684.365173 
	C675.205200,687.113220 675.949341,690.768188 672.590027,691.742920 
	C668.658569,692.883606 664.329102,693.072083 660.366272,691.349670 
	C658.630737,690.595276 658.801636,688.617615 658.629395,686.943909 
	C657.759216,678.486450 656.387024,670.111572 653.603516,662.052246 
	C652.193848,657.970886 650.084778,654.441589 644.965332,654.297546 
	C641.243408,654.192932 639.872864,655.578674 641.685364,659.108459 
	C647.922424,671.255310 651.967102,684.148376 652.715393,697.728943 
	C654.314636,726.755432 654.114258,755.354126 634.553406,779.995667 
	C616.269531,803.028442 592.956787,815.429504 563.850586,819.671692 
	C524.749512,825.370483 491.450500,812.474609 459.985779,791.479370 
	C458.325714,790.371704 456.772217,789.061157 455.007965,788.161011 
	C449.884583,785.546814 445.757538,786.545593 442.382904,791.248413 
	C438.187927,797.094421 436.686615,804.005554 435.438568,810.865662 
	C434.582458,815.571228 432.266174,817.320251 427.667236,817.309143 
	C411.473114,817.270020 413.666473,818.072937 413.695282,803.915710 
	C413.745483,779.275146 416.821686,754.752380 416.711212,730.098022 
	C416.647736,715.931946 416.598938,701.763123 416.821320,687.599976 
	C416.884277,683.591980 415.628632,681.170166 412.034302,679.273804 
	C361.637360,652.683899 331.155212,610.174011 314.774475,556.648132 
	C306.156403,528.487610 301.624268,499.676514 302.657776,470.109802 
	C302.902161,463.118408 302.658356,456.110992 302.697876,449.111237 
	C302.947662,404.849579 313.306549,363.096466 334.314117,324.129364 
	C354.429932,286.816315 382.593903,257.364868 420.372192,237.509079 
	C439.949005,227.219742 460.922485,221.572067 482.730011,218.991333 
	C511.238617,215.617584 539.564331,215.800278 567.557129,225.287857 
M472.796539,771.702026 
	C476.432648,776.043274 480.194000,780.232422 484.338074,784.139221 
	C506.303040,804.846191 556.294922,810.711121 583.814148,795.400757 
	C596.615112,788.278931 607.723511,779.911194 613.366089,765.581848 
	C618.895142,751.540527 619.245667,737.033813 618.878845,722.338684 
	C618.512817,707.675293 613.316223,694.780457 604.802307,683.015198 
	C602.218750,679.445068 599.468018,678.486450 595.449402,680.664307 
	C589.442871,683.919556 583.119812,686.508606 576.731384,688.946045 
	C547.192444,700.215942 516.767822,703.371643 485.427216,699.651062 
	C473.025574,698.178894 460.685913,696.547180 448.506134,693.797852 
	C445.252594,693.063477 444.074738,694.291748 444.723602,697.474792 
	C445.254669,700.080017 445.757904,702.691833 446.346069,705.284241 
	C451.629517,728.571655 457.542145,751.613098 472.796539,771.702026 
z"/>
</svg>